<svg id="visual" viewBox="0 0 900 600" width="900" height="600" xmlns="http://www.w3.org/2000/svg" xmlns:xlink="http://www.w3.org/1999/xlink" version="1.1"><rect x="0" y="0" width="900" height="600" fill="#ffefd7"></rect><path d="M0 133L21.5 132.7C43 132.3 86 131.7 128.8 132.7C171.7 133.7 214.3 136.3 257.2 133.3C300 130.3 343 121.7 385.8 121C428.7 120.3 471.3 127.7 514.2 128.3C557 129 600 123 642.8 121.5C685.7 120 728.3 123 771.2 127.2C814 131.3 857 136.7 878.5 139.3L900 142L900 0L878.5 0C857 0 814 0 771.2 0C728.3 0 685.7 0 642.8 0C600 0 557 0 514.2 0C471.3 0 428.7 0 385.8 0C343 0 300 0 257.2 0C214.3 0 171.7 0 128.8 0C86 0 43 0 21.5 0L0 0Z" fill="#fa7268"></path><path d="M0 119L21.5 117.3C43 115.7 86 112.3 128.8 112.5C171.7 112.7 214.3 116.3 257.2 114C300 111.7 343 103.3 385.8 98.7C428.7 94 471.3 93 514.2 94.8C557 96.7 600 101.3 642.8 105C685.7 108.7 728.3 111.3 771.2 112.7C814 114 857 114 878.5 114L900 114L900 0L878.5 0C857 0 814 0 771.2 0C728.3 0 685.7 0 642.8 0C600 0 557 0 514.2 0C471.3 0 428.7 0 385.8 0C343 0 300 0 257.2 0C214.3 0 171.7 0 128.8 0C86 0 43 0 21.5 0L0 0Z" fill="#ef5f67"></path><path d="M0 82L21.5 82.5C43 83 86 84 128.8 79.5C171.7 75 214.3 65 257.2 65.7C300 66.3 343 77.7 385.8 80.7C428.7 83.7 471.3 78.3 514.2 79.3C557 80.3 600 87.7 642.8 90.3C685.7 93 728.3 91 771.2 85.5C814 80 857 71 878.5 66.5L900 62L900 0L878.5 0C857 0 814 0 771.2 0C728.3 0 685.7 0 642.8 0C600 0 557 0 514.2 0C471.3 0 428.7 0 385.8 0C343 0 300 0 257.2 0C214.3 0 171.7 0 128.8 0C86 0 43 0 21.5 0L0 0Z" fill="#e34c67"></path><path d="M0 42L21.5 44.7C43 47.3 86 52.7 128.8 56.8C171.7 61 214.3 64 257.2 64.2C300 64.3 343 61.7 385.8 61C428.7 60.3 471.3 61.7 514.2 58C557 54.3 600 45.7 642.8 43.7C685.7 41.7 728.3 46.3 771.2 46.8C814 47.3 857 43.7 878.5 41.8L900 40L900 0L878.5 0C857 0 814 0 771.2 0C728.3 0 685.7 0 642.8 0C600 0 557 0 514.2 0C471.3 0 428.7 0 385.8 0C343 0 300 0 257.2 0C214.3 0 171.7 0 128.8 0C86 0 43 0 21.5 0L0 0Z" fill="#d53867"></path><path d="M0 34L21.5 34.5C43 35 86 36 128.8 33.3C171.7 30.7 214.3 24.3 257.2 21.7C300 19 343 20 385.8 22.5C428.7 25 471.3 29 514.2 29.3C557 29.7 600 26.3 642.8 23.2C685.7 20 728.3 17 771.2 18.7C814 20.3 857 26.7 878.5 29.8L900 33L900 0L878.5 0C857 0 814 0 771.2 0C728.3 0 685.7 0 642.8 0C600 0 557 0 514.2 0C471.3 0 428.7 0 385.8 0C343 0 300 0 257.2 0C214.3 0 171.7 0 128.8 0C86 0 43 0 21.5 0L0 0Z" fill="#c62368"></path></svg>